<svg xmlns="http://www.w3.org/2000/svg" width="10" height="10" viewBox="0 0 10 10">
    <path fill="#9EA0B5" fill-rule="evenodd" d="M8.5 5.5H7A1.5 1.5 0 0 0 5.5 7v1.5A1.5 1.5 0 0 0 7 10h1.5A1.5 1.5 0 0 0 10 8.5V7a1.5 1.5 0 0 0-1.5-1.5M3 5.5H1.5A1.5 1.5 0 0 0 0 7v1.5A1.5 1.5 0 0 0 1.5 10H3a1.5 1.5 0 0 0 1.5-1.5V7A1.5 1.5 0 0 0 3 5.5M8.5 0H7a1.5 1.5 0 0 0-1.5 1.5V3A1.5 1.5 0 0 0 7 4.5h1.5A1.5 1.5 0 0 0 10 3V1.5A1.5 1.5 0 0 0 8.5 0m-4 1.5V3A1.5 1.5 0 0 1 3 4.5H1.5A1.5 1.5 0 0 1 0 3V1.5A1.5 1.5 0 0 1 1.5 0H3a1.5 1.5 0 0 1 1.5 1.5"/>
</svg>
