<?xml version="1.0" standalone="no"?><!DOCTYPE svg PUBLIC "-//W3C//DTD SVG 1.1//EN" "http://www.w3.org/Graphics/SVG/1.1/DTD/svg11.dtd"><svg t="1514970505284" class="icon" style="" viewBox="0 0 1024 1024" version="1.1" xmlns="http://www.w3.org/2000/svg" p-id="6614" xmlns:xlink="http://www.w3.org/1999/xlink" width="48" height="48"><defs><style type="text/css"></style></defs><path d="M912.695652 1001.73913H623.304348a89.043478 89.043478 0 0 1-89.043478-89.043478V623.304348a89.043478 89.043478 0 0 1 89.043478-89.043478h289.391304a89.043478 89.043478 0 0 1 89.043478 89.043478v289.391304a89.043478 89.043478 0 0 1-89.043478 89.043478z m0-512H623.304348a89.043478 89.043478 0 0 1-89.043478-89.043478V111.304348a89.043478 89.043478 0 0 1 89.043478-89.043478h289.391304a89.043478 89.043478 0 0 1 89.043478 89.043478v289.391304a89.043478 89.043478 0 0 1-89.043478 89.043478zM400.695652 1001.73913H111.304348a89.043478 89.043478 0 0 1-89.043478-89.043478V623.304348a89.043478 89.043478 0 0 1 89.043478-89.043478h289.391304a89.043478 89.043478 0 0 1 89.043478 89.043478v289.391304a89.043478 89.043478 0 0 1-89.043478 89.043478z m0-512H111.304348a89.043478 89.043478 0 0 1-89.043478-89.043478V111.304348a89.043478 89.043478 0 0 1 89.043478-89.043478h289.391304a89.043478 89.043478 0 0 1 89.043478 89.043478v289.391304a89.043478 89.043478 0 0 1-89.043478 89.043478zM133.565217 311.652174h44.52174v-44.521739H133.565217v44.521739z m133.565218-178.086957H200.347826a66.782609 66.782609 0 0 0-66.782609 66.782609v22.26087h44.52174V200.347826a22.26087 22.26087 0 0 1 22.260869-22.260869h66.782609V133.565217z" p-id="6615"></path></svg>