<?xml version="1.0" standalone="no"?><!DOCTYPE svg PUBLIC "-//W3C//DTD SVG 1.1//EN" "http://www.w3.org/Graphics/SVG/1.1/DTD/svg11.dtd"><svg t="1520393330447" class="icon" style="" viewBox="0 0 1024 1024" version="1.1" xmlns="http://www.w3.org/2000/svg" p-id="3104" xmlns:xlink="http://www.w3.org/1999/xlink" width="48" height="48"><defs><style type="text/css"></style></defs><path d="M928 412.8v416c0 45.968-37.232 83.2-83.2 83.2H678.4a83.184 83.184 0 0 1-83.2-83.2H428.8c0 45.968-37.232 83.2-83.2 83.2H179.2A83.184 83.184 0 0 1 96 828.8v-416c0-45.968 37.232-83.2 83.2-83.2h291.2v-83.2c0-45.968 37.232-83.2 83.2-83.2h83.2a41.6 41.6 0 0 0 41.6-41.6V80h83.2v83.2c0 45.968-37.232 83.2-83.2 83.2h-83.2a41.6 41.6 0 0 0-41.6 41.6v41.6h291.2c45.968 0 83.2 37.232 83.2 83.2zM720 496h-83.2a41.6 41.6 0 0 0-41.6 41.6v83.2a41.6 41.6 0 0 0 41.6 41.6H720a41.6 41.6 0 0 0 41.6-41.6v-83.2A41.6 41.6 0 0 0 720 496z m-291.2 41.6v83.2a41.6 41.6 0 0 1-41.6 41.6H304a41.6 41.6 0 0 1-41.6-41.6v-83.2A41.6 41.6 0 0 1 304 496h83.2a41.6 41.6 0 0 1 41.6 41.6z" p-id="3105"></path></svg>
