<?xml version="1.0" standalone="no"?><!DOCTYPE svg PUBLIC "-//W3C//DTD SVG 1.1//EN" "http://www.w3.org/Graphics/SVG/1.1/DTD/svg11.dtd"><svg t="1521192258662" class="icon" style="" viewBox="0 0 1024 1024" version="1.1" xmlns="http://www.w3.org/2000/svg" p-id="3104" xmlns:xlink="http://www.w3.org/1999/xlink" width="48" height="48"><defs><style type="text/css"></style></defs><path d="M761.6 179.36v665.28A83.36 83.36 0 0 1 678.24 928H345.76a83.36 83.36 0 0 1-83.36-83.36V179.36A83.36 83.36 0 0 1 345.76 96h332.48a83.36 83.36 0 0 1 83.36 83.36m124.8 83.04a41.6 41.6 0 0 0-41.6 41.6v416a41.6 41.6 0 0 0 83.2 0V304a41.6 41.6 0 0 0-41.6-41.6M179.2 304v416A41.6 41.6 0 0 1 96 720V304a41.6 41.6 0 0 1 83.2 0" p-id="3105"></path></svg>
