<?xml version="1.0" standalone="no"?><!DOCTYPE svg PUBLIC "-//W3C//DTD SVG 1.1//EN" "http://www.w3.org/Graphics/SVG/1.1/DTD/svg11.dtd"><svg t="1517023463750" class="icon" style="" viewBox="0 0 1024 1024" version="1.1" xmlns="http://www.w3.org/2000/svg" p-id="2921" xmlns:xlink="http://www.w3.org/1999/xlink" width="48" height="48"><defs><style type="text/css"></style></defs><path d="M790.672 345.6H761.6v208.208c0 108.992-98.752 207.792-207.792 207.792H345.6v29.072A137.328 137.328 0 0 0 482.928 928h307.744A137.328 137.328 0 0 0 928 790.672V482.928a137.328 137.328 0 0 0-137.328-137.328m-249.6 332.8H233.328A137.328 137.328 0 0 1 96 541.072V233.328A137.328 137.328 0 0 1 233.328 96h307.744a137.328 137.328 0 0 1 137.328 137.328v307.744a137.328 137.328 0 0 1-137.328 137.328" p-id="2922"></path></svg>