<?xml version="1.0" standalone="no"?><!DOCTYPE svg PUBLIC "-//W3C//DTD SVG 1.1//EN" "http://www.w3.org/Graphics/SVG/1.1/DTD/svg11.dtd"><svg t="1517023413134" class="icon" style="" viewBox="0 0 1024 1024" version="1.1" xmlns="http://www.w3.org/2000/svg" p-id="2798" xmlns:xlink="http://www.w3.org/1999/xlink" width="48" height="48"><defs><style type="text/css"></style></defs><path d="M803.2 553.6h-124.8a124.8 124.8 0 0 0-124.8 124.8v124.8a124.8 124.8 0 0 0 124.8 124.8h124.8a124.8 124.8 0 0 0 124.8-124.8v-124.8a124.8 124.8 0 0 0-124.8-124.8m-457.6 0h-124.8A124.8 124.8 0 0 0 96 678.4v124.8a124.8 124.8 0 0 0 124.8 124.8h124.8a124.8 124.8 0 0 0 124.8-124.8v-124.8a124.8 124.8 0 0 0-124.8-124.8M803.2 96h-124.8a124.8 124.8 0 0 0-124.8 124.8v124.8a124.8 124.8 0 0 0 124.8 124.8h124.8a124.8 124.8 0 0 0 124.8-124.8v-124.8A124.8 124.8 0 0 0 803.2 96m-332.8 124.8v124.8a124.8 124.8 0 0 1-124.8 124.8h-124.8A124.8 124.8 0 0 1 96 345.6v-124.8A124.8 124.8 0 0 1 220.8 96h124.8a124.8 124.8 0 0 1 124.8 124.8" p-id="2799"></path></svg>