<svg width="111px" height="23px" viewBox="135 4493 111 23" version="1.1" xmlns="http://www.w3.org/2000/svg" xmlns:xlink="http://www.w3.org/1999/xlink">
  <defs></defs>
  <path d="M218.901092,4493.02263 L217.752261,4495.78408 L215.634807,4495.78408 L214.485975,4493.02263 L212.075682,4493.63377 L212.976726,4495.78408 L211.692738,4495.78408 C211.084533,4495.78408 210.566433,4496.30468 210.566433,4496.91582 L210.566433,4505.58494 C210.566433,4506.21871 211.084533,4506.71668 211.692738,4506.71668 L215.432072,4506.71668 L215.432072,4509.02542 L210.453802,4509.02542 L209.890649,4511.08519 L215.432072,4511.08519 L215.432072,4515.04627 L217.93247,4515.04627 L217.93247,4511.08519 L223.496418,4511.08519 L223.496418,4509.02542 L217.93247,4509.02542 L217.93247,4506.71668 L221.671804,4506.71668 C222.302535,4506.71668 222.798109,4506.21871 222.798109,4505.58494 L222.798109,4496.91582 C222.798109,4496.30468 222.302535,4495.78408 221.671804,4495.78408 L220.387816,4495.78408 L221.311386,4493.63377 L218.901092,4493.02263 Z M204.326701,4493.33952 L204.326701,4496.68947 L202.186721,4496.68947 L201.736198,4498.74923 L206.827099,4498.74923 C205.83595,4502.03128 203.988809,4504.40793 201.55599,4506.37715 L202.772399,4508.48219 C203.425657,4507.96159 204.056388,4507.39572 204.642066,4506.80721 L204.642066,4515.001 L207.142464,4515.001 L207.142464,4505.87919 L208.67424,4507.46362 L210.070858,4505.60757 L207.547934,4503.02721 C208.3814,4501.62385 209.012131,4500.08469 209.440127,4498.47762 C209.687914,4497.48169 209.214866,4496.68947 208.178665,4496.68947 L206.849625,4496.68947 L206.849625,4493 L204.326701,4493.33952 Z M220.342763,4504.38529 C220.342763,4504.58901 220.207607,4504.72482 220.004872,4504.72482 L217.93247,4504.72482 L217.93247,4502.28026 L220.342763,4502.28026 L220.342763,4504.38529 Z M213.021778,4504.38529 L213.021778,4502.28026 L215.432072,4502.28026 L215.432072,4504.72482 L213.35967,4504.72482 C213.179461,4504.72482 213.021778,4504.58901 213.021778,4504.38529 Z M220.004872,4497.79857 C220.207607,4497.79857 220.342763,4497.95702 220.342763,4498.13809 L220.342763,4500.22049 L217.93247,4500.22049 L217.93247,4497.79857 L220.004872,4497.79857 Z M213.021778,4498.13809 C213.021778,4497.95702 213.179461,4497.79857 213.35967,4497.79857 L215.432072,4497.79857 L215.432072,4500.22049 L213.021778,4500.22049 L213.021778,4498.13809 Z M226.875335,4502.43421 L226.402286,4504.90922 L246,4504.90922 L246,4502.43421 L226.875335,4502.43421 Z M145.471674,4493 L136.708163,4493 C136.542329,4493 136,4493 136,4493 C136,4493 136,4493.47864 136,4493.71261 L136,4495.13782 L136,4495.85043 C136,4495.85043 136.518046,4495.85043 136.708163,4495.85043 L143.347187,4495.85043 C143.347187,4495.85043 136,4511.43723 136,4512.19364 L136,4514.33367 C136,4514.68997 136.309821,4515.04627 136.708163,4515.04627 L145.471674,4515.04627 C145.664371,4515.04627 146.179837,4515.04627 146.179837,4515.04627 C146.179837,4515.04627 146.179837,4514.51761 146.179837,4514.33367 L146.179837,4512.90845 C146.179837,4512.71944 146.179837,4512.19585 146.179837,4512.19585 C146.179837,4512.19585 145.682184,4512.19585 145.471674,4512.19585 L138.83265,4512.19585 C138.83265,4512.19585 146.179837,4496.57365 146.179837,4495.85043 C146.179837,4495.11875 146.179837,4493.71261 146.179837,4493.71261 C146.179837,4493.31177 145.870016,4493 145.471674,4493 Z M156.094113,4495.85043 C156.277748,4495.85043 156.802275,4495.85043 156.802275,4495.85043 C156.802275,4495.85043 156.802275,4495.35387 156.802275,4495.13782 L156.802275,4493.71261 C156.802275,4493.51727 156.802275,4493 156.802275,4493 L156.094113,4493 L150.827154,4493 C150.030471,4493 149.410829,4493.62353 149.410829,4494.42521 L149.410829,4513.62106 C149.410829,4514.37821 150.030471,4515.04627 150.827154,4515.04627 L156.094113,4515.04627 L156.802275,4515.04627 C156.802275,4515.04627 156.802275,4514.56643 156.802275,4514.33367 L156.802275,4512.90845 C156.802275,4512.6994 156.802275,4512.19585 156.802275,4512.19585 C156.802275,4512.19585 156.284704,4512.19585 156.094113,4512.19585 L152.243479,4512.19585 L152.243479,4505.42608 L156.094113,4505.42608 C156.25006,4505.42608 156.802275,4505.42608 156.802275,4505.42608 C156.802275,4505.42608 156.802275,4504.95739 156.802275,4504.71347 L156.802275,4503.28826 C156.802275,4503.05232 156.802275,4502.57565 156.802275,4502.57565 C156.802275,4502.57565 156.257983,4502.57565 156.094113,4502.57565 L152.243479,4502.57565 L152.243479,4495.85043 L156.094113,4495.85043 Z M165.610047,4493 C162.777397,4493 160.475869,4495.31597 160.475869,4498.12186 L160.475869,4514.33367 L160.475869,4515.04627 C160.475869,4515.04627 161.005135,4515.04627 161.184031,4515.04627 L162.600356,4515.04627 C162.783393,4515.04627 163.308519,4515.04627 163.308519,4515.04627 C163.308519,4515.04627 163.308519,4514.52625 163.308519,4514.33367 L163.308519,4498.12186 C163.308519,4496.8748 164.326503,4495.85043 165.610047,4495.85043 C166.849332,4495.85043 167.867316,4496.8748 167.867316,4498.12186 L167.867316,4514.33367 C167.867316,4514.54146 167.867316,4515.04627 167.867316,4515.04627 C167.867316,4515.04627 168.409441,4515.04627 168.575478,4515.04627 L169.991803,4515.04627 C170.165327,4515.04627 170.699966,4515.04627 170.699966,4515.04627 C170.699966,4515.04627 170.699966,4514.53476 170.699966,4514.33367 L170.699966,4498.12186 C170.699966,4495.31597 168.398437,4493 165.610047,4493 Z M179.507738,4493 C176.675088,4493 174.373559,4495.31597 174.373559,4498.12186 L174.373559,4509.87987 C174.373559,4512.7303 176.675088,4515.04627 179.507738,4515.04627 C182.296128,4515.04627 184.597656,4512.7303 184.597656,4509.87987 L184.597656,4498.12186 C184.597656,4495.31597 182.296128,4493 179.507738,4493 Z M181.765006,4509.87987 C181.765006,4511.17147 180.747022,4512.19585 179.507738,4512.19585 C178.224193,4512.19585 177.206209,4511.17147 177.206209,4509.87987 L177.206209,4498.12186 C177.206209,4496.8748 178.224193,4495.85043 179.507738,4495.85043 C180.747022,4495.85043 181.765006,4496.8748 181.765006,4498.12186 L181.765006,4509.87987 Z" id="Combined-Shape" stroke="none" fill-rule="evenodd"></path>
</svg>
